<svg xmlns="http://www.w3.org/2000/svg" version="1.1" xmlns:xlink="http://www.w3.org/1999/xlink" xmlns:svgjs="http://svgjs.com/svgjs" width="1440" height="560" preserveAspectRatio="none" viewBox="0 0 1440 560">
    <g mask="url(&quot;#SvgjsMask1202&quot;)" fill="none">
        <rect width="1440" height="560" x="0" y="0" fill="url(#SvgjsLinearGradient1203)"></rect>
        <path d="M0 0L268.68 0L0 264.82z" fill="rgba(255, 255, 255, .1)"></path>
        <path d="M0 264.82L268.68 0L718.39 0L0 362.89z" fill="rgba(255, 255, 255, .075)"></path>
        <path d="M0 362.89L718.39 0L797.0699999999999 0L0 470.39z" fill="rgba(255, 255, 255, .05)"></path>
        <path d="M0 470.39L797.0699999999999 0L1167.48 0L0 480.26z" fill="rgba(255, 255, 255, .025)"></path>
        <path d="M1440 560L1142.62 560L1440 410.34000000000003z" fill="rgba(0, 0, 0, .1)"></path>
        <path d="M1440 410.34000000000003L1142.62 560L742.3 560L1440 258.9200000000001z" fill="rgba(0, 0, 0, .075)"></path>
        <path d="M1440 258.92L742.3 560L377.68999999999994 560L1440 112.38000000000002z" fill="rgba(0, 0, 0, .05)"></path>
        <path d="M1440 112.38L377.69000000000005 560L309.68000000000006 560L1440 41.39999999999999z" fill="rgba(0, 0, 0, .025)"></path>
    </g>
    <defs>
        <mask id="SvgjsMask1202">
            <rect width="1440" height="560" fill="#ffffff"></rect>
        </mask>
        <linearGradient x1="15.28%" y1="-39.29%" x2="84.72%" y2="139.29%" gradientUnits="userSpaceOnUse" id="SvgjsLinearGradient1203">
            <stop stop-color="rgba(6, 87, 171, 1)" offset="0"></stop>
            <stop stop-color="rgba(0, 143, 234, 1)" offset="1"></stop>
        </linearGradient>
    </defs>
</svg>
