<svg xmlns="http://www.w3.org/2000/svg" viewBox="0 0 395.52 98.892802211657" height="98.892802211657" width="395.52"><g><svg viewBox="0 0 502.9804769049599 125.76139972412803" height="98.892802211657" width="395.52"><g transform="matrix(1,0,0,1,107.46047690495992,17.380917038573415)"><svg viewBox="0 0 395.52 90.9995656469812" height="90.9995656469812" width="395.52"><g><svg viewBox="0 0 395.52 90.9995656469812" height="90.9995656469812" width="395.52"><g><svg viewBox="0 0 395.52 62.667032529320636" height="62.667032529320636" width="395.52"><g transform="matrix(1,0,0,1,0,0)"><svg width="395.52" viewBox="0 -35.5 225.33999633789062 35.79999923706055" height="62.667032529320636" data-palette-color="#ffff33"><g class="undefined-text-0" data-fill-palette-color="primary" id="text-0"><path d="M18.45-18.4L29.2 0 21.1 0 14.7-12.25 8.05 0 0 0 11.1-18.4 1.05-35 9.3-35 14.85-24.7 20.65-35 28.65-35 18.45-18.4ZM53.6-5.75L53.6 0 32.75 0 32.75-35 53.6-35 53.6-29.25 40-29.25 40-21.9 52.35-21.9 52.35-16.05 40-16.05 40-5.75 53.6-5.75ZM81.25-5.8L81.25 0 57.3 0 57.3-5.6 71.8-29.25 57.25-29.25 57.25-35 79.7-35 79.7-29.65 65.34-5.8 81.25-5.8ZM100.39-35L110.99 0 103.79 0 101.29-8.55 90.74-8.55 88.29 0 81.34 0 91.84-35 100.39-35ZM92.19-14.3L99.94-14.3 96.09-28.7 92.19-14.3ZM122.04-15.2L122.04-15.2 121.44-15.2 121.44-0.05 114.19-0.05 114.19-35.05 125.29-35.05Q130.94-35.05 133.74-32.58 136.54-30.1 136.54-25.5L136.54-25.5Q136.54-22.7 134.59-20.38 132.64-18.05 129.84-17.7L129.84-17.7Q131.84-17.15 132.94-15.88 134.04-14.6 135.24-11.75L135.24-11.75 140.19-0.05 132.74-0.05 127.89-11.25Q126.84-13.65 125.67-14.43 124.49-15.2 122.04-15.2ZM125.09-29.35L125.09-29.35 121.44-29.35 121.44-20.9 124.59-20.9Q126.59-20.9 127.72-22.2 128.84-23.5 128.84-25.4L128.84-25.4Q128.84-29.35 125.09-29.35Z" fill="#ffff33" data-fill-palette-color="primary"/><path d="M153.59-13.45L153.59-13.45 150.99-13.45 150.99 0 143.74 0 143.74-35 154.74-35Q160.89-35 163.64-32.38 166.39-29.75 166.39-24.28 166.39-18.8 163.02-16.13 159.64-13.45 153.59-13.45ZM153.04-29.3L153.04-29.3 150.99-29.3 150.99-19.15 151.79-19.15Q155.59-19.15 157.37-20.3 159.14-21.45 159.14-24.18 159.14-26.9 157.69-28.1 156.24-29.3 153.04-29.3ZM183.39 0.25L183.39 0.25Q176.04 0.25 172.29-4.83 168.54-9.9 168.54-17.75 168.54-25.6 172.31-30.55 176.09-35.5 183.41-35.5 190.74-35.5 194.54-30.55 198.34-25.6 198.34-17.75L198.34-17.75Q198.34-7 191.79-2.25L191.79-2.25Q188.34 0.25 183.39 0.25ZM183.49-29.75L183.49-29.75Q180.84-29.75 179.04-27.9L179.04-27.9Q175.84-24.7 175.84-17.75L175.84-17.75Q175.84-12.5 177.79-9.03 179.74-5.55 183.51-5.55 187.29-5.55 189.19-9.08 191.09-12.6 191.09-17.68 191.09-22.75 189.06-26.25 187.04-29.75 183.49-29.75ZM222.78-33.75L222.78-33.75 221.59-27.9 218.49-28.75Q215.19-29.5 212.74-29.5L212.74-29.5Q209.33-29.5 209.33-26.25L209.33-26.25Q209.33-25 210.51-23.98 211.69-22.95 213.49-22.28 215.28-21.6 217.33-20.6 219.38-19.6 221.19-18.45 222.99-17.3 224.16-15.3 225.34-13.3 225.34-10.7L225.34-10.7Q225.34-5.55 222.01-2.63 218.69 0.3 212.63 0.3L212.63 0.3Q209.53 0.3 206.46-0.53 203.39-1.35 201.39-2.45L201.39-2.45 203.53-7.8Q208.13-5.7 212.63-5.7L212.63-5.7Q215.19-5.7 216.63-6.88 218.08-8.05 218.08-9.9 218.08-11.75 216.44-12.98 214.78-14.2 212.44-15.18 210.08-16.15 207.74-17.38 205.38-18.6 203.74-20.83 202.09-23.05 202.09-26.1L202.09-26.1Q202.09-30.65 204.94-33.08 207.78-35.5 212.61-35.5 217.44-35.5 222.78-33.75Z" fill="#ffffff" data-fill-palette-color="secondary"/></g></svg></g></svg></g><g transform="matrix(1,0,0,1,0,77.46121490071253)"><svg viewBox="0 0 232.20979200000002 13.538350746268657" height="13.538350746268657" width="232.20979200000002"><g transform="matrix(1,0,0,1,0,0)"><svg width="232.20979200000002" viewBox="1.9500000476837158 -38.150001525878906 857.510009765625 50" height="13.538350746268657" data-palette-color="#ffffff"><path d="M5 0L1.95 0 14.9-36.7 18.65-36.7 31.6 0 28.55 0 24.5-11.4 9-11.4 5 0ZM16.75-34.1L9.75-14 23.65-14 16.75-34.1ZM40.55 11.85L37.65 11.85 37.65-26.65 39.9-26.65 40.55-23.85Q41.4-24.45 42.92-25.2 44.45-25.95 46.22-26.45 48-26.95 49.65-26.95L49.65-26.95Q52.3-26.95 54.12-25.8 55.95-24.65 57.1-22.7 58.25-20.75 58.75-18.35 59.25-15.95 59.25-13.4L59.25-13.4Q59.25-8.85 58.17-5.78 57.1-2.7 55-1.2 52.9 0.3 49.65 0.3L49.65 0.3Q47.35 0.3 44.95-0.48 42.55-1.25 40.55-2.45L40.55-2.45 40.55 11.85ZM49-2.15L49-2.15Q51.15-2.15 52.77-3.23 54.4-4.3 55.37-6.75 56.35-9.2 56.35-13.4L56.35-13.4Q56.35-17.4 55.3-19.85 54.25-22.3 52.57-23.43 50.9-24.55 49-24.55L49-24.55Q46.45-24.55 44.35-23.73 42.25-22.9 40.55-22.05L40.55-22.05 40.55-4.6Q42.5-3.5 44.67-2.83 46.85-2.15 49-2.15ZM76.25 0.05L73 0.05Q70.9 0.05 69.42-0.75 67.95-1.55 67.2-3.4 66.45-5.25 66.45-8.5L66.45-8.5 66.45-38.15 69.35-38.15 69.35-8.8Q69.35-6.2 69.82-4.85 70.3-3.5 71.22-3 72.15-2.5 73.35-2.35L73.35-2.35 76.25-2 76.25 0.05ZM83.29-31.65L81.34-31.65Q80.59-31.65 80.59-32.4L80.59-32.4 80.59-35.95Q80.59-36.7 81.34-36.7L81.34-36.7 83.29-36.7Q83.64-36.7 83.79-36.5 83.94-36.3 83.94-35.95L83.94-35.95 83.94-32.4Q83.94-31.65 83.29-31.65L83.29-31.65ZM83.74 0L80.84 0 80.84-26.65 83.74-26.65 83.74 0ZM94.79 0L91.89 0 91.89-38.15 94.79-38.15 94.79-15.6 98.79-15.6 107.64-26.65 110.79-26.65 100.89-14.25 111.34 0 108.14 0 98.64-13 94.79-13 94.79 0ZM121.54 0.3L121.54 0.3Q118.64 0.3 116.71-1.43 114.79-3.15 114.79-6.35L114.79-6.35 114.79-8.15Q114.79-11.3 116.86-13.25 118.94-15.2 122.99-15.2L122.99-15.2 132.74-15.2 132.74-18.9Q132.74-20.7 132.11-22 131.49-23.3 129.94-24 128.39-24.7 125.49-24.7L125.49-24.7 117.14-24.7 117.14-26.45Q118.79-26.65 121.06-26.85 123.34-27.05 126.29-27.1L126.29-27.1Q129.54-27.15 131.61-26.28 133.69-25.4 134.66-23.6 135.64-21.8 135.64-19.05L135.64-19.05 135.64 0 133.44 0 132.84-3.1Q132.69-3 131.61-2.48 130.54-1.95 128.84-1.3 127.14-0.65 125.24-0.18 123.34 0.3 121.54 0.3ZM122.54-2L122.54-2Q123.54-1.95 124.86-2.23 126.19-2.5 127.54-2.88 128.89-3.25 130.06-3.63 131.24-4 131.96-4.3 132.69-4.6 132.74-4.6L132.74-4.6 132.74-13.65 123.44-13.3Q120.34-13.2 119.01-11.75 117.69-10.3 117.69-8.1L117.69-8.1 117.69-6.85Q117.69-5.05 118.44-3.98 119.19-2.9 120.31-2.45 121.44-2 122.54-2ZM152.64 0.3L152.64 0.3Q151.74 0.3 150.29 0.25 148.84 0.2 147.24 0.13 145.64 0.05 144.34-0.05 143.04-0.15 142.39-0.25L142.39-0.25 142.39-2 153.04-2Q154.89-2 156.26-2.3 157.64-2.6 158.41-3.55 159.19-4.5 159.19-6.5L159.19-6.5 159.19-7.8Q159.19-9.75 157.89-10.88 156.59-12 153.79-12L153.79-12 150.19-12Q147.74-12 145.96-12.58 144.19-13.15 143.19-14.55 142.19-15.95 142.19-18.4L142.19-18.4 142.19-19.75Q142.19-22.25 143.16-23.8 144.14-25.35 146.11-26.13 148.09-26.9 151.19-26.9L151.19-26.9Q152.49-26.9 154.29-26.83 156.09-26.75 157.89-26.63 159.69-26.5 160.79-26.3L160.79-26.3 160.79-24.5 150.79-24.5Q147.89-24.5 146.34-23.53 144.79-22.55 144.79-19.75L144.79-19.75 144.79-18.6Q144.79-16.85 145.51-15.95 146.24-15.05 147.54-14.78 148.84-14.5 150.54-14.5L150.54-14.5 154.19-14.5Q157.74-14.5 159.76-12.85 161.79-11.2 161.79-8.05L161.79-8.05 161.79-6.35Q161.79-3.65 160.59-2.23 159.39-0.8 157.34-0.25 155.29 0.3 152.64 0.3ZM170.98-31.65L169.03-31.65Q168.28-31.65 168.28-32.4L168.28-32.4 168.28-35.95Q168.28-36.7 169.03-36.7L169.03-36.7 170.98-36.7Q171.33-36.7 171.48-36.5 171.63-36.3 171.63-35.95L171.63-35.95 171.63-32.4Q171.63-31.65 170.98-31.65L170.98-31.65ZM171.43 0L168.53 0 168.53-26.65 171.43-26.65 171.43 0ZM201.78 0L198.63 0 190.23-26.65 193.18-26.65 200.43-2.7 207.63-26.65 210.23-26.65 217.48-2.7 224.58-26.65 227.53-26.65 219.18 0 215.98 0 208.88-22.95 201.78 0ZM235.13-31.65L233.18-31.65Q232.43-31.65 232.43-32.4L232.43-32.4 232.43-35.95Q232.43-36.7 233.18-36.7L233.18-36.7 235.13-36.7Q235.48-36.7 235.63-36.5 235.78-36.3 235.78-35.95L235.78-35.95 235.78-32.4Q235.78-31.65 235.13-31.65L235.13-31.65ZM235.58 0L232.68 0 232.68-26.65 235.58-26.65 235.58 0ZM246.62 0L243.72 0 243.72-26.65 245.87-26.65 246.62-21.85Q248.52-24.05 250.85-25.5 253.17-26.95 256.22-26.95L256.22-26.95Q256.97-26.95 257.62-26.88 258.27-26.8 258.82-26.65L258.82-26.65 258.82-23.7Q258.17-23.8 257.47-23.9 256.77-24 255.97-24L255.97-24Q254.02-24 252.5-23.5 250.97-23 249.57-22.03 248.17-21.05 246.62-19.6L246.62-19.6 246.62 0ZM268.22 0.3L268.22 0.3Q265.32 0.3 263.4-1.43 261.47-3.15 261.47-6.35L261.47-6.35 261.47-8.15Q261.47-11.3 263.55-13.25 265.62-15.2 269.67-15.2L269.67-15.2 279.42-15.2 279.42-18.9Q279.42-20.7 278.8-22 278.17-23.3 276.62-24 275.07-24.7 272.17-24.7L272.17-24.7 263.82-24.7 263.82-26.45Q265.47-26.65 267.75-26.85 270.02-27.05 272.97-27.1L272.97-27.1Q276.22-27.15 278.3-26.28 280.37-25.4 281.35-23.6 282.32-21.8 282.32-19.05L282.32-19.05 282.32 0 280.12 0 279.52-3.1Q279.37-3 278.3-2.48 277.22-1.95 275.52-1.3 273.82-0.65 271.92-0.18 270.02 0.3 268.22 0.3ZM269.22-2L269.22-2Q270.22-1.95 271.55-2.23 272.87-2.5 274.22-2.88 275.57-3.25 276.75-3.63 277.92-4 278.65-4.3 279.37-4.6 279.42-4.6L279.42-4.6 279.42-13.65 270.12-13.3Q267.02-13.2 265.7-11.75 264.37-10.3 264.37-8.1L264.37-8.1 264.37-6.85Q264.37-5.05 265.12-3.98 265.87-2.9 267-2.45 268.12-2 269.22-2ZM298.32 0.3L298.32 0.3Q294.47 0.3 292.37-1.65 290.27-3.6 290.27-7.9L290.27-7.9 290.27-26.65 293.17-26.65 293.17-8.55Q293.17-4.85 294.82-3.58 296.47-2.3 299.57-2.3L299.57-2.3Q302.17-2.3 304.27-2.98 306.37-3.65 308.67-5L308.67-5 308.67-26.65 311.57-26.65 311.57 0 309.42 0 308.67-3Q306.62-1.65 303.94-0.68 301.27 0.3 298.32 0.3ZM328.62 0.3L328.62 0.3Q327.72 0.3 326.27 0.25 324.82 0.2 323.22 0.13 321.62 0.05 320.32-0.05 319.02-0.15 318.37-0.25L318.37-0.25 318.37-2 329.02-2Q330.87-2 332.24-2.3 333.62-2.6 334.39-3.55 335.17-4.5 335.17-6.5L335.17-6.5 335.17-7.8Q335.17-9.75 333.87-10.88 332.57-12 329.77-12L329.77-12 326.17-12Q323.72-12 321.94-12.58 320.17-13.15 319.17-14.55 318.17-15.95 318.17-18.4L318.17-18.4 318.17-19.75Q318.17-22.25 319.14-23.8 320.12-25.35 322.09-26.13 324.07-26.9 327.17-26.9L327.17-26.9Q328.47-26.9 330.27-26.83 332.07-26.75 333.87-26.63 335.67-26.5 336.77-26.3L336.77-26.3 336.77-24.5 326.77-24.5Q323.87-24.5 322.32-23.53 320.77-22.55 320.77-19.75L320.77-19.75 320.77-18.6Q320.77-16.85 321.49-15.95 322.22-15.05 323.52-14.78 324.82-14.5 326.52-14.5L326.52-14.5 330.17-14.5Q333.72-14.5 335.74-12.85 337.77-11.2 337.77-8.05L337.77-8.05 337.77-6.35Q337.77-3.65 336.57-2.23 335.37-0.8 333.32-0.25 331.27 0.3 328.62 0.3ZM349.56 0.3L349.56 0.3Q346.66 0.3 344.74-1.43 342.81-3.15 342.81-6.35L342.81-6.35 342.81-8.15Q342.81-11.3 344.89-13.25 346.96-15.2 351.01-15.2L351.01-15.2 360.76-15.2 360.76-18.9Q360.76-20.7 360.14-22 359.51-23.3 357.96-24 356.41-24.7 353.51-24.7L353.51-24.7 345.16-24.7 345.16-26.45Q346.81-26.65 349.09-26.85 351.36-27.05 354.31-27.1L354.31-27.1Q357.56-27.15 359.64-26.28 361.71-25.4 362.69-23.6 363.66-21.8 363.66-19.05L363.66-19.05 363.66 0 361.46 0 360.86-3.1Q360.71-3 359.64-2.48 358.56-1.95 356.86-1.3 355.16-0.65 353.26-0.18 351.36 0.3 349.56 0.3ZM350.56-2L350.56-2Q351.56-1.95 352.89-2.23 354.21-2.5 355.56-2.88 356.91-3.25 358.09-3.63 359.26-4 359.99-4.3 360.71-4.6 360.76-4.6L360.76-4.6 360.76-13.65 351.46-13.3Q348.36-13.2 347.04-11.75 345.71-10.3 345.71-8.1L345.71-8.1 345.71-6.85Q345.71-5.05 346.46-3.98 347.21-2.9 348.34-2.45 349.46-2 350.56-2ZM374.56 0L371.66 0 371.66-38.15 374.56-38.15 374.56-23.65Q376.51-25 379.19-26.05 381.86-27.1 384.71-27.1L384.71-27.1Q387.46-27.1 389.29-25.9 391.11-24.7 392.04-22.68 392.96-20.65 392.96-18.3L392.96-18.3 392.96 0 390.06 0 390.06-18.05Q390.06-19.85 389.31-21.3 388.56-22.75 387.21-23.6 385.86-24.45 383.91-24.45L383.91-24.45Q382.01-24.45 380.49-24.1 378.96-23.75 377.56-23.13 376.16-22.5 374.56-21.65L374.56-21.65 374.56 0ZM406.01 0.3L406.01 0.3Q403.11 0.3 401.18-1.43 399.26-3.15 399.26-6.35L399.26-6.35 399.26-8.15Q399.26-11.3 401.33-13.25 403.41-15.2 407.46-15.2L407.46-15.2 417.21-15.2 417.21-18.9Q417.21-20.7 416.58-22 415.96-23.3 414.41-24 412.86-24.7 409.96-24.7L409.96-24.7 401.61-24.7 401.61-26.45Q403.26-26.65 405.53-26.85 407.81-27.05 410.76-27.1L410.76-27.1Q414.01-27.15 416.08-26.28 418.16-25.4 419.13-23.6 420.11-21.8 420.11-19.05L420.11-19.05 420.11 0 417.91 0 417.31-3.1Q417.16-3 416.08-2.48 415.01-1.95 413.31-1.3 411.61-0.65 409.71-0.18 407.81 0.3 406.01 0.3ZM407.01-2L407.01-2Q408.01-1.95 409.33-2.23 410.66-2.5 412.01-2.88 413.36-3.25 414.53-3.63 415.71-4 416.43-4.3 417.16-4.6 417.21-4.6L417.21-4.6 417.21-13.65 407.91-13.3Q404.81-13.2 403.48-11.75 402.16-10.3 402.16-8.1L402.16-8.1 402.16-6.85Q402.16-5.05 402.91-3.98 403.66-2.9 404.78-2.45 405.91-2 407.01-2ZM449.8 0.3L449.8 0.3Q445.95 0.3 443.85-1.65 441.75-3.6 441.75-7.9L441.75-7.9 441.75-26.65 444.65-26.65 444.65-8.55Q444.65-4.85 446.3-3.58 447.95-2.3 451.05-2.3L451.05-2.3Q453.65-2.3 455.75-2.98 457.85-3.65 460.15-5L460.15-5 460.15-26.65 463.05-26.65 463.05 0 460.9 0 460.15-3Q458.1-1.65 455.43-0.68 452.75 0.3 449.8 0.3ZM474 0L471.1 0 471.1-26.65 473.25-26.65 474-23.65Q476-25 478.63-26.05 481.25-27.1 484.15-27.1L484.15-27.1Q486.95-27.1 488.77-25.88 490.6-24.65 491.5-22.63 492.4-20.6 492.4-18.3L492.4-18.3 492.4 0 489.5 0 489.5-18Q489.5-19.85 488.75-21.3 488-22.75 486.65-23.6 485.3-24.45 483.35-24.45L483.35-24.45Q481.45-24.45 479.93-24.13 478.4-23.8 476.98-23.15 475.55-22.5 474-21.65L474-21.65 474 0ZM512.15 0L508.8 0Q506.4 0 504.77-0.85 503.15-1.7 502.35-3.55 501.55-5.4 501.55-8.35L501.55-8.35 501.7-24.2 497.45-24.2 497.45-26.1 501.7-26.65 502.25-34.1 504.45-34.1 504.45-26.65 512.55-26.65 512.55-24.2 504.45-24.2 504.45-8.35Q504.45-6.45 504.87-5.28 505.3-4.1 505.97-3.5 506.65-2.9 507.42-2.68 508.2-2.45 508.9-2.4L508.9-2.4 512.15-2.1 512.15 0ZM526.44 0.3L526.44 0.3Q522.59 0.3 520.49-1.65 518.39-3.6 518.39-7.9L518.39-7.9 518.39-26.65 521.29-26.65 521.29-8.55Q521.29-4.85 522.94-3.58 524.59-2.3 527.69-2.3L527.69-2.3Q530.29-2.3 532.39-2.98 534.49-3.65 536.79-5L536.79-5 536.79-26.65 539.69-26.65 539.69 0 537.54 0 536.79-3Q534.74-1.65 532.07-0.68 529.39 0.3 526.44 0.3ZM550.64 0L547.74 0 547.74-38.15 550.64-38.15 550.64-15.6 554.64-15.6 563.49-26.65 566.64-26.65 556.74-14.25 567.19 0 563.99 0 554.49-13 550.64-13 550.64 0ZM588.94 0L586.04 0 586.04-38.15 588.94-38.15 588.94-15.6 592.94-15.6 601.79-26.65 604.94-26.65 595.04-14.25 605.49 0 602.29 0 592.79-13 588.94-13 588.94 0ZM620.48 0.3L620.48 0.3Q616.38 0.3 614.01-0.98 611.63-2.25 610.63-5.25 609.63-8.25 609.63-13.4L609.63-13.4Q609.63-18.65 610.68-21.6 611.73-24.55 614.16-25.75 616.58-26.95 620.63-26.95L620.63-26.95Q624.03-26.95 626.21-26.18 628.38-25.4 629.46-23.5 630.53-21.6 630.53-18.25L630.53-18.25Q630.53-16 629.66-14.63 628.78-13.25 627.13-12.65 625.48-12.05 623.23-12.05L623.23-12.05 612.53-12.05Q612.53-8.4 613.23-6.2 613.93-4 615.76-3 617.58-2 621.13-2L621.13-2 629.93-2 629.93-0.25Q627.53 0 625.41 0.15 623.28 0.3 620.48 0.3ZM612.48-14.1L612.48-14.1 623.03-14.1Q625.48-14.1 626.68-14.98 627.88-15.85 627.88-18.25L627.88-18.25Q627.88-20.75 627.16-22.15 626.43-23.55 624.86-24.13 623.28-24.7 620.63-24.7L620.63-24.7Q617.48-24.7 615.71-23.8 613.93-22.9 613.21-20.6 612.48-18.3 612.48-14.1ZM647.53 0.05L644.28 0.05Q642.18 0.05 640.71-0.75 639.23-1.55 638.48-3.4 637.73-5.25 637.73-8.5L637.73-8.5 637.73-38.15 640.63-38.15 640.63-8.8Q640.63-6.2 641.11-4.85 641.58-3.5 642.51-3 643.43-2.5 644.63-2.35L644.63-2.35 647.53-2 647.53 0.05ZM662.43 0.3L662.43 0.3Q659.68 0.3 657.55-0.28 655.43-0.85 653.98-2.33 652.53-3.8 651.83-6.48 651.13-9.15 651.13-13.35L651.13-13.35Q651.13-17.6 651.85-20.28 652.58-22.95 654-24.4 655.43-25.85 657.55-26.4 659.68-26.95 662.43-26.95L662.43-26.95Q665.18-26.95 667.3-26.4 669.43-25.85 670.88-24.4 672.33-22.95 673.05-20.28 673.78-17.6 673.78-13.35L673.78-13.35Q673.78-9.15 673.05-6.45 672.33-3.75 670.9-2.3 669.48-0.85 667.33-0.28 665.18 0.3 662.43 0.3ZM662.43-2.15L662.43-2.15Q664.43-2.15 666.03-2.53 667.63-2.9 668.68-4.03 669.73-5.15 670.3-7.4 670.88-9.65 670.88-13.35L670.88-13.35Q670.88-17.1 670.3-19.33 669.73-21.55 668.68-22.68 667.63-23.8 666.03-24.18 664.43-24.55 662.43-24.55L662.43-24.55Q660.38-24.55 658.83-24.18 657.28-23.8 656.2-22.68 655.13-21.55 654.58-19.33 654.03-17.1 654.03-13.35L654.03-13.35Q654.03-9.65 654.58-7.4 655.13-5.15 656.2-4.03 657.28-2.9 658.83-2.53 660.38-2.15 662.43-2.15ZM690.78 0.05L687.53 0.05Q685.43 0.05 683.95-0.75 682.48-1.55 681.73-3.4 680.98-5.25 680.98-8.5L680.98-8.5 680.98-38.15 683.88-38.15 683.88-8.8Q683.88-6.2 684.35-4.85 684.83-3.5 685.75-3 686.68-2.5 687.88-2.35L687.88-2.35 690.78-2 690.78 0.05ZM700.42 0.3L700.42 0.3Q697.52 0.3 695.6-1.43 693.67-3.15 693.67-6.35L693.67-6.35 693.67-8.15Q693.67-11.3 695.75-13.25 697.82-15.2 701.87-15.2L701.87-15.2 711.62-15.2 711.62-18.9Q711.62-20.7 711-22 710.37-23.3 708.82-24 707.27-24.7 704.37-24.7L704.37-24.7 696.02-24.7 696.02-26.45Q697.67-26.65 699.95-26.85 702.22-27.05 705.17-27.1L705.17-27.1Q708.42-27.15 710.5-26.28 712.57-25.4 713.55-23.6 714.52-21.8 714.52-19.05L714.52-19.05 714.52 0 712.32 0 711.72-3.1Q711.57-3 710.5-2.48 709.42-1.95 707.72-1.3 706.02-0.65 704.12-0.18 702.22 0.3 700.42 0.3ZM701.42-2L701.42-2Q702.42-1.95 703.75-2.23 705.07-2.5 706.42-2.88 707.77-3.25 708.95-3.63 710.12-4 710.85-4.3 711.57-4.6 711.62-4.6L711.62-4.6 711.62-13.65 702.32-13.3Q699.22-13.2 697.9-11.75 696.57-10.3 696.57-8.1L696.57-8.1 696.57-6.85Q696.57-5.05 697.32-3.98 698.07-2.9 699.2-2.45 700.32-2 701.42-2ZM748.32 0.3L748.32 0.3Q746.42 0.3 744.69-0.2 742.97-0.7 741.54-1.4 740.12-2.1 739.12-2.75L739.12-2.75 738.47 0 736.22 0 736.22-38.15 739.12-38.15 739.12-24.05Q741.12-25.25 743.64-26.1 746.17-26.95 748.22-26.95L748.22-26.95Q751.37-26.95 753.49-25.63 755.62-24.3 756.72-21.28 757.82-18.25 757.82-13.15L757.82-13.15Q757.82-9.1 756.87-6.08 755.92-3.05 753.84-1.38 751.77 0.3 748.32 0.3ZM747.57-2.15L747.57-2.15Q750.02-2.15 751.64-3.4 753.27-4.65 754.09-7.15 754.92-9.65 754.92-13.25L754.92-13.25Q754.92-17.95 753.97-20.35 753.02-22.75 751.37-23.65 749.72-24.55 747.57-24.55L747.57-24.55Q745.07-24.55 743.14-23.85 741.22-23.15 739.12-22.05L739.12-22.05 739.12-4.6Q740.82-3.7 742.89-2.93 744.97-2.15 747.57-2.15ZM767.47-31.65L765.52-31.65Q764.77-31.65 764.77-32.4L764.77-32.4 764.77-35.95Q764.77-36.7 765.52-36.7L765.52-36.7 767.47-36.7Q767.82-36.7 767.97-36.5 768.12-36.3 768.12-35.95L768.12-35.95 768.12-32.4Q768.12-31.65 767.47-31.65L767.47-31.65ZM767.92 0L765.02 0 765.02-26.65 767.92-26.65 767.92 0ZM785.06 0.3L785.06 0.3Q784.16 0.3 782.71 0.25 781.26 0.2 779.66 0.13 778.06 0.05 776.76-0.05 775.46-0.15 774.81-0.25L774.81-0.25 774.81-2 785.46-2Q787.31-2 788.69-2.3 790.06-2.6 790.84-3.55 791.61-4.5 791.61-6.5L791.61-6.5 791.61-7.8Q791.61-9.75 790.31-10.88 789.01-12 786.21-12L786.21-12 782.61-12Q780.16-12 778.39-12.58 776.61-13.15 775.61-14.55 774.61-15.95 774.61-18.4L774.61-18.4 774.61-19.75Q774.61-22.25 775.59-23.8 776.56-25.35 778.54-26.13 780.51-26.9 783.61-26.9L783.61-26.9Q784.91-26.9 786.71-26.83 788.51-26.75 790.31-26.63 792.11-26.5 793.21-26.3L793.21-26.3 793.21-24.5 783.21-24.5Q780.31-24.5 778.76-23.53 777.21-22.55 777.21-19.75L777.21-19.75 777.21-18.6Q777.21-16.85 777.94-15.95 778.66-15.05 779.96-14.78 781.26-14.5 782.96-14.5L782.96-14.5 786.61-14.5Q790.16-14.5 792.19-12.85 794.21-11.2 794.21-8.05L794.21-8.05 794.21-6.35Q794.21-3.65 793.01-2.23 791.81-0.8 789.76-0.25 787.71 0.3 785.06 0.3ZM803.86 0L800.96 0 800.96-26.65 803.11-26.65 803.86-23.65Q805.86-25 808.49-26.05 811.11-27.1 814.01-27.1L814.01-27.1Q816.81-27.1 818.64-25.88 820.46-24.65 821.36-22.63 822.26-20.6 822.26-18.3L822.26-18.3 822.26 0 819.36 0 819.36-18Q819.36-19.85 818.61-21.3 817.86-22.75 816.51-23.6 815.16-24.45 813.21-24.45L813.21-24.45Q811.31-24.45 809.79-24.13 808.26-23.8 806.84-23.15 805.41-22.5 803.86-21.65L803.86-21.65 803.86 0ZM832.71-31.65L830.76-31.65Q830.01-31.65 830.01-32.4L830.01-32.4 830.01-35.95Q830.01-36.7 830.76-36.7L830.76-36.7 832.71-36.7Q833.06-36.7 833.21-36.5 833.36-36.3 833.36-35.95L833.36-35.95 833.36-32.4Q833.36-31.65 832.71-31.65L832.71-31.65ZM833.16 0L830.26 0 830.26-26.65 833.16-26.65 833.16 0ZM850.31 0.3L850.31 0.3Q849.41 0.3 847.96 0.25 846.51 0.2 844.91 0.13 843.31 0.05 842.01-0.05 840.71-0.15 840.06-0.25L840.06-0.25 840.06-2 850.71-2Q852.56-2 853.93-2.3 855.31-2.6 856.08-3.55 856.86-4.5 856.86-6.5L856.86-6.5 856.86-7.8Q856.86-9.75 855.56-10.88 854.26-12 851.46-12L851.46-12 847.86-12Q845.41-12 843.63-12.58 841.86-13.15 840.86-14.55 839.86-15.95 839.86-18.4L839.86-18.4 839.86-19.75Q839.86-22.25 840.83-23.8 841.81-25.35 843.78-26.13 845.76-26.9 848.86-26.9L848.86-26.9Q850.16-26.9 851.96-26.83 853.76-26.75 855.56-26.63 857.36-26.5 858.46-26.3L858.46-26.3 858.46-24.5 848.46-24.5Q845.56-24.5 844.01-23.53 842.46-22.55 842.46-19.75L842.46-19.75 842.46-18.6Q842.46-16.85 843.18-15.95 843.91-15.05 845.21-14.78 846.51-14.5 848.21-14.5L848.21-14.5 851.86-14.5Q855.41-14.5 857.43-12.85 859.46-11.2 859.46-8.05L859.46-8.05 859.46-6.35Q859.46-3.65 858.26-2.23 857.06-0.8 855.01-0.25 852.96 0.3 850.31 0.3Z" opacity="1" transform="matrix(1,0,0,1,0,0)" fill="#ffffff" class="undefined-text-1" data-fill-palette-color="secondary" id="text-1"/></svg></g></svg></g></svg></g></svg></g><g><svg viewBox="0 0 92.66629453356802 125.76139972412803" height="125.76139972412803" width="92.66629453356802"><g><svg xmlns="http://www.w3.org/2000/svg" viewBox="12 5 28 38" style="enable-background:new 0 0 48 48" xml:space="preserve" x="0" y="0" height="125.76139972412803" width="92.66629453356802" class="icon-icon-0" data-fill-palette-color="accent" id="icon-0"><path d="M30 16H18c-1.1 0-2 0.9-2 2v7c0 1.1 0.9 2 2 2h12c1.1 0 2-0.9 2-2v-7c0-1.1-0.9-2-2-2z m-12 9v-7h12v7H18zM19 29h-2c-0.55 0-1 0.45-1 1s0.45 1 1 1h2c0.55 0 1-0.45 1-1s-0.45-1-1-1zM25 29h-2c-0.55 0-1 0.45-1 1s0.45 1 1 1h2c0.55 0 1-0.45 1-1s-0.45-1-1-1zM31 29h-2c-0.55 0-1 0.45-1 1s0.45 1 1 1h2c0.55 0 1-0.45 1-1s-0.45-1-1-1zM19 33h-2c-0.55 0-1 0.45-1 1s0.45 1 1 1h2c0.55 0 1-0.45 1-1s-0.45-1-1-1zM25 33h-2c-0.55 0-1 0.45-1 1s0.45 1 1 1h2c0.55 0 1-0.45 1-1s-0.45-1-1-1zM31 33h-2c-0.55 0-1 0.45-1 1s0.45 1 1 1h2c0.55 0 1-0.45 1-1s-0.45-1-1-1zM19 37h-2c-0.55 0-1 0.45-1 1s0.45 1 1 1h2c0.55 0 1-0.45 1-1s-0.45-1-1-1zM25 37h-2c-0.55 0-1 0.45-1 1s0.45 1 1 1h2c0.55 0 1-0.45 1-1s-0.45-1-1-1zM31 37h-2c-0.55 0-1 0.45-1 1s0.45 1 1 1h2c0.55 0 1-0.45 1-1s-0.45-1-1-1z" fill="#ffffff" data-fill-palette-color="accent"/><path d="M38 16h-2v-3c0-1.65-1.35-3-3-3h-3V7c0-1.1-0.9-2-2-2h-8c-1.1 0-2 0.9-2 2v3h-3c-1.65 0-3 1.35-3 3v27c0 1.65 1.35 3 3 3h18c1.65 0 3-1.35 3-3v-1h2c1.1 0 2-0.9 2-2V18c0-1.1-0.9-2-2-2zM20 7h8v6h-8V7z m14 33c0 0.55-0.45 1-1 1H15c-0.55 0-1-0.45-1-1V13c0-0.55 0.45-1 1-1h3v1c0 1.1 0.9 2 2 2h8c1.1 0 2-0.9 2-2v-1h3c0.55 0 1 0.45 1 1v27z m2-3V18h2v19h-2z" fill="#ffffff" data-fill-palette-color="accent"/></svg></g></svg></g></svg></g></svg>
